<?xml version="1.0" standalone="no"?>
<!DOCTYPE svg PUBLIC "-//W3C//DTD SVG 20010904//EN"
 "http://www.w3.org/TR/2001/REC-SVG-20010904/DTD/svg10.dtd">
<svg version="1.0" xmlns="http://www.w3.org/2000/svg"
 width="1280.000000pt" height="1280.000000pt" viewBox="0 0 1280.000000 1280.000000"
 preserveAspectRatio="xMidYMid meet">

<g transform="translate(0.000000,1280.000000) scale(0.100000,-0.100000)"
fill="#ffffff" stroke="none">
<path d="M6121 12133 c-32 -4 -33 -5 -13 -19 11 -8 44 -59 72 -115 l51 -100
-18 -37 c-13 -27 -25 -37 -43 -39 -14 0 -31 -1 -38 -2 -8 -1 -12 -10 -10 -23
2 -16 11 -24 28 -26 43 -5 73 41 130 198 30 80 58 151 63 158 7 9 2 12 -21 12
-25 0 -29 -3 -25 -20 5 -19 -36 -150 -47 -150 -4 0 -21 31 -40 69 -28 59 -31
72 -20 85 14 17 7 18 -69 9z"/>
<path d="M6432 12129 c22 -13 29 -59 20 -134 l-7 -60 -33 3 c-30 3 -33 1 -30
-20 4 -29 31 -35 63 -14 21 14 25 25 25 64 0 26 3 71 6 100 l7 52 38 0 39 0 0
-44 c0 -23 -3 -71 -6 -105 -6 -50 -10 -61 -25 -61 -11 0 -19 -4 -19 -10 0 -6
29 -10 67 -10 64 0 66 1 45 16 -20 14 -22 23 -22 106 0 71 4 96 17 110 15 17
12 18 -93 18 -77 -1 -104 -4 -92 -11z"/>
<path d="M5886 12100 c-39 -34 -50 -76 -36 -135 11 -51 59 -95 101 -95 38 0
99 56 99 92 -1 23 -1 22 -16 -4 -27 -51 -102 -50 -129 2 -8 16 -15 46 -15 67
0 79 64 113 95 52 11 -20 21 -29 31 -25 9 3 18 6 20 6 14 0 0 42 -18 54 -37
26 -92 20 -132 -14z"/>
<path d="M6739 12121 c11 -7 12 -28 6 -105 -6 -79 -10 -99 -26 -110 -18 -12
-17 -14 18 -20 21 -3 62 -6 91 -6 43 0 58 5 77 25 14 13 25 31 25 38 0 28 -36
59 -83 71 -27 7 -48 15 -47 19 0 4 0 23 0 42 0 28 4 35 20 35 11 0 20 5 20 10
0 6 -26 10 -57 10 -37 0 -53 -3 -44 -9z m112 -131 c22 -12 26 -59 7 -78 -13
-13 -64 -16 -72 -4 -2 4 -2 27 1 50 6 45 23 53 64 32z"/>
<path d="M5002 12093 c-13 -12 -23 -40 -30 -87 -11 -70 -32 -106 -62 -106 -13
0 -22 16 -33 62 -16 61 -15 63 5 85 l21 22 -74 -21 c-84 -23 -94 -28 -55 -28
32 0 34 -4 82 -174 l37 -130 -23 -18 c-27 -22 -12 -23 55 -3 78 24 84 27 50
34 -25 5 -33 14 -47 56 -35 106 -16 110 95 24 l80 -62 46 16 c37 12 41 15 19
16 -16 1 -56 24 -100 57 -40 30 -78 59 -85 62 -9 6 -9 16 2 47 8 22 14 57 15
77 0 35 2 37 38 40 30 2 38 7 40 26 3 18 -1 22 -26 22 -16 0 -39 -8 -50 -17z"/>
<path d="M5645 12091 c-27 -7 -28 -8 -9 -14 16 -6 23 -19 28 -49 4 -22 5 -42
4 -43 -2 -2 -25 -5 -53 -7 l-50 -3 -3 38 c-2 21 2 45 9 53 9 12 7 14 -17 13
-16 -1 -42 -4 -59 -8 -27 -7 -28 -8 -9 -14 24 -8 30 -28 40 -140 5 -55 3 -77
-5 -77 -6 0 -11 -4 -11 -10 0 -9 27 -7 90 7 24 5 24 5 4 13 -15 6 -23 21 -28
51 -8 51 2 60 59 57 l40 -3 3 -47 c2 -38 0 -47 -15 -50 -10 -2 -13 -6 -8 -9 6
-3 35 -1 65 4 43 7 51 11 34 17 -17 7 -23 22 -32 79 -15 89 -15 124 0 139 9 9
5 12 -17 11 -17 -1 -43 -4 -60 -8z"/>
<path d="M7050 12087 c0 -9 -3 -24 -7 -34 -5 -15 -2 -14 20 5 18 17 31 22 47
17 21 -7 22 -10 15 -88 -8 -95 -18 -127 -42 -128 -35 -2 32 -17 77 -17 37 -1
41 1 23 8 -27 11 -26 5 -11 126 9 75 14 94 25 89 8 -3 21 -5 28 -5 8 0 21 -12
30 -27 l15 -28 -2 35 c-3 39 -6 40 -150 55 -57 5 -68 4 -68 -8z"/>
<path d="M7333 12048 c16 -12 16 -19 1 -103 -11 -60 -22 -95 -35 -106 -17 -16
-15 -17 34 -27 58 -11 69 -8 42 11 -12 10 -15 18 -9 30 11 18 113 101 119 95
3 -3 -3 -38 -20 -115 -3 -13 -12 -23 -20 -23 -8 0 -15 -4 -15 -10 0 -5 8 -10
18 -10 9 0 35 -3 57 -6 36 -6 38 -5 22 8 -18 13 -18 18 -2 108 18 106 20 110
43 111 24 1 -12 14 -63 23 -32 6 -38 5 -27 -5 23 -24 12 -46 -41 -88 -30 -22
-56 -41 -59 -41 -13 0 16 117 33 131 18 16 17 17 -13 23 -17 3 -42 6 -56 6
-23 0 -24 -1 -9 -12z"/>
<path d="M5230 12023 c-98 -50 -86 -212 18 -244 100 -30 185 84 137 184 -31
65 -96 90 -155 60z m84 -43 c28 -34 43 -110 30 -149 -12 -33 -57 -40 -86 -14
-43 38 -65 152 -36 181 22 22 65 14 92 -18z"/>
<path d="M7725 11994 c-5 -1 -23 -5 -39 -9 -25 -5 -27 -7 -12 -18 15 -11 15
-21 -9 -122 -44 -185 -43 -185 -67 -185 -34 0 -13 -11 47 -26 55 -12 56 -12
40 5 -13 16 -14 25 -4 64 l11 45 35 -14 c47 -20 86 -10 122 31 52 59 54 156 4
195 -31 24 -45 25 -83 5 -28 -14 -29 -14 -32 9 -2 12 -7 22 -13 20z m101 -85
c25 -50 -2 -150 -46 -164 -29 -9 -60 3 -69 28 -9 24 11 130 29 152 7 8 25 15
41 15 22 0 32 -7 45 -31z"/>
<path d="M8029 11841 c-36 -35 -39 -43 -39 -93 0 -66 24 -103 75 -117 76 -21
151 34 162 117 10 75 -40 132 -115 132 -38 0 -50 -6 -83 -39z m139 -14 c16
-34 7 -103 -19 -146 -21 -35 -66 -43 -93 -15 -30 29 -17 134 22 177 24 27 74
19 90 -16z"/>
<path d="M4443 11813 c-12 -2 -36 -20 -53 -39 -55 -63 -33 -168 45 -208 35
-18 41 -18 78 -5 55 19 81 57 81 118 0 89 -70 151 -151 134z m66 -58 c59 -67
63 -157 7 -171 -34 -8 -71 19 -96 70 -52 108 15 185 89 101z"/>
<path d="M8355 11786 c19 -13 18 -17 -19 -109 -30 -76 -42 -96 -59 -99 -31 -4
114 -58 157 -58 56 0 85 53 50 91 -15 17 -15 19 10 30 31 14 42 48 27 77 -6
11 -44 34 -85 51 -80 33 -112 40 -81 17z m107 -53 c32 -29 16 -73 -26 -73 -40
0 -50 14 -36 54 13 40 33 46 62 19z m-38 -104 c31 -24 34 -53 6 -72 -21 -14
-66 -12 -76 4 -8 14 18 89 31 89 7 0 24 -9 39 -21z"/>
<path d="M4175 11695 c-44 -19 -70 -34 -58 -35 18 0 27 -14 51 -77 45 -117 45
-120 25 -132 -27 -16 -3 -13 52 6 40 13 45 17 29 23 -22 9 -89 172 -80 195 7
19 69 29 94 16 31 -16 34 -14 16 14 -21 32 -31 31 -129 -10z"/>
<path d="M8662 11638 c-7 -7 -12 -20 -12 -30 0 -25 37 -23 45 2 8 24 47 27 65
5 7 -8 10 -25 6 -40 -6 -23 -10 -25 -70 -25 -49 0 -69 -5 -90 -21 -52 -41 -24
-109 46 -109 27 0 37 -5 41 -20 4 -15 14 -20 40 -20 20 0 39 5 42 10 3 6 -1
10 -9 10 -23 0 -20 19 14 93 39 87 39 112 -2 137 -37 22 -98 26 -116 8z m73
-130 c-13 -42 -35 -68 -58 -68 -29 0 -47 18 -47 47 0 28 24 42 73 43 35 0 38
-2 32 -22z"/>
<path d="M3871 11565 c-38 -33 -54 -79 -41 -124 30 -106 130 -143 201 -75 38
36 46 83 24 140 -31 81 -122 110 -184 59z m79 -10 c32 -17 80 -99 80 -136 0
-28 -27 -59 -53 -59 -31 0 -73 37 -96 85 -26 56 -26 80 -1 105 24 24 32 25 70
5z"/>
<path d="M8940 11542 c0 -4 5 -13 11 -19 7 -7 -2 -33 -31 -89 -52 -98 -57
-104 -78 -97 -27 9 -2 -12 41 -36 46 -25 51 -26 39 -4 -7 12 -4 29 11 59 l20
42 44 -21 c23 -11 43 -26 43 -31 0 -21 -40 -76 -55 -76 -24 0 -8 -18 35 -40
48 -25 53 -25 38 -1 -9 16 -4 33 32 105 31 61 49 86 62 86 30 0 20 14 -27 38
-53 26 -62 27 -45 7 10 -13 10 -23 -5 -55 -10 -22 -20 -40 -22 -40 -14 0 -83
42 -83 51 0 25 32 68 52 71 19 3 14 8 -29 31 -29 15 -53 24 -53 19z"/>
<path d="M3638 11436 c-43 -26 -61 -42 -36 -33 11 4 25 -2 38 -15 19 -21 36
-57 28 -62 -16 -12 -81 -46 -82 -44 -1 2 -10 16 -20 31 -11 18 -15 38 -12 53
l6 24 -49 -27 c-43 -24 -47 -29 -28 -33 14 -4 39 -35 71 -89 42 -72 47 -87 37
-104 -11 -16 -4 -15 40 9 43 24 49 30 31 32 -14 2 -30 18 -43 44 -11 22 -19
41 -17 42 17 12 77 46 81 46 4 0 16 -18 27 -41 17 -32 19 -44 9 -55 -16 -19
-5 -18 41 6 46 24 59 40 31 40 -26 0 -113 144 -108 178 5 26 3 26 -45 -2z"/>
<path d="M9271 11362 c10 -17 6 -30 -36 -98 -50 -83 -62 -97 -82 -89 -24 8
-13 -4 24 -30 46 -31 50 -31 49 -3 -1 19 10 26 63 46 36 12 70 21 77 20 19 -5
-58 -113 -79 -112 -28 3 -19 -9 26 -36 56 -33 64 -36 48 -17 -16 21 -12 32 47
124 35 56 51 73 64 70 27 -7 22 0 -19 28 -46 31 -50 31 -49 3 1 -19 -9 -26
-68 -45 -39 -12 -72 -21 -74 -18 -6 6 43 89 62 104 8 7 20 10 26 6 5 -3 10 -3
10 2 0 4 -19 19 -43 33 -58 34 -60 35 -46 12z"/>
<path d="M3258 11308 c-3 -46 -4 -47 -87 -36 -33 4 -37 -17 -8 -37 22 -14 29
-14 59 -2 63 27 102 106 56 115 -13 3 -17 -6 -20 -40z"/>
<path d="M3337 11252 c-37 -24 -38 -26 -17 -34 20 -7 21 -12 14 -65 -14 -113
-15 -114 -56 -48 -29 47 -34 63 -26 78 9 18 6 17 -32 -4 -50 -28 -71 -50 -41
-42 29 7 124 -139 117 -179 l-5 -27 44 27 c48 29 56 42 26 42 -11 0 -21 5 -23
11 -6 18 14 149 23 149 14 0 71 -103 66 -121 -7 -25 1 -24 46 6 38 27 48 39
22 29 -9 -4 -28 16 -58 63 -67 104 -70 112 -56 129 18 22 -2 16 -44 -14z"/>
<path d="M9565 11130 c-13 -15 -16 -29 -11 -59 l6 -39 -66 -18 c-63 -18 -64
-19 -44 -36 16 -13 27 -15 53 -6 115 35 123 34 90 -10 -11 -15 -32 -28 -47
-30 -27 -3 -26 -4 18 -38 25 -19 47 -34 49 -34 2 0 2 10 0 23 -3 16 10 43 42
87 56 77 72 91 93 83 30 -12 1 16 -59 56 -68 46 -97 51 -124 21z m99 -26 c23
-9 20 -24 -13 -63 l-28 -34 -18 27 c-32 48 5 91 59 70z"/>
<path d="M3003 11034 c-41 -20 -67 -74 -58 -121 8 -46 68 -111 109 -118 65
-13 121 35 119 102 -1 45 -20 66 -20 23 0 -40 -33 -73 -73 -73 -30 0 -80 28
-87 49 -2 6 26 30 62 55 36 24 65 47 65 50 0 12 -36 38 -60 43 -14 4 -39 -1
-57 -10z m45 -36 c7 -7 12 -15 12 -19 0 -6 -75 -59 -85 -59 -10 0 -5 66 7 78
7 7 21 12 33 12 12 0 26 -5 33 -12z"/>
<path d="M9957 10881 c3 -12 -12 -38 -45 -77 -57 -69 -70 -81 -97 -85 -16 -3
-12 -10 25 -39 24 -19 41 -28 38 -19 -11 29 10 42 84 55 40 7 74 11 76 10 8
-9 -85 -106 -101 -106 -16 0 -17 -2 -7 -15 7 -9 27 -25 43 -37 l29 -21 -6 21
c-10 29 109 176 136 169 25 -7 23 -1 -14 33 -35 31 -50 38 -43 18 3 -7 1 -18
-3 -25 -8 -12 -140 -38 -149 -29 -7 7 67 96 81 97 6 1 18 0 26 -1 8 -1 -3 14
-25 34 -46 40 -55 44 -48 17z"/>
<path d="M2770 10855 l-24 -26 28 -85 c15 -47 26 -87 24 -89 -1 -1 -40 14 -86
36 l-83 38 -32 -30 c-26 -24 -28 -29 -11 -24 31 8 158 -136 148 -168 -6 -19
-2 -18 26 8 27 26 29 30 13 33 -20 4 -75 53 -105 95 l-20 28 54 -24 c29 -14
70 -32 90 -42 21 -10 41 -16 44 -12 5 4 -25 107 -54 186 -3 8 20 -14 52 -48
41 -44 56 -69 53 -82 -4 -16 2 -14 34 12 41 33 50 50 21 43 -25 -7 -146 130
-139 156 7 27 -5 25 -33 -5z"/>
<path d="M10438 10638 c7 -7 12 -20 12 -29 0 -19 -214 -219 -234 -219 -7 0
-17 5 -24 12 -7 7 -12 8 -12 2 0 -5 22 -31 48 -57 47 -46 49 -47 45 -20 -4 25
9 40 107 132 l111 104 55 -54 c30 -29 54 -59 54 -65 0 -16 -216 -214 -233
-214 -7 0 -18 5 -25 12 -6 6 -14 9 -17 7 -2 -3 19 -29 49 -58 50 -50 53 -51
49 -24 -3 25 9 40 103 126 97 89 111 98 137 93 l30 -6 -44 47 c-136 150 -206
223 -214 223 -5 0 -4 -5 3 -12z"/>
<path d="M2419 10539 c-69 -74 3 -212 111 -212 60 0 95 37 94 99 -1 60 -24 85
-24 27 0 -32 -5 -46 -22 -57 -32 -22 -81 -20 -113 6 l-28 22 64 58 c62 55 63
58 44 72 -11 9 -37 16 -58 16 -31 0 -45 -7 -68 -31z m77 -20 c3 -6 -10 -28
-30 -48 -30 -30 -38 -33 -46 -21 -13 21 -12 54 2 68 15 15 65 16 74 1z"/>
<path d="M2220 10497 c0 -8 -22 -28 -48 -44 -128 -79 -118 -258 19 -330 76
-41 158 -26 216 40 37 42 49 89 35 138 l-10 34 -1 -49 c-1 -66 -30 -110 -86
-131 -35 -14 -50 -15 -75 -7 -111 39 -185 177 -134 250 31 45 101 65 146 41
27 -14 36 -3 12 16 -65 51 -74 56 -74 42z"/>
<path d="M10557 10205 c-71 -49 -88 -126 -38 -176 29 -29 76 -38 115 -23 27
10 18 21 -13 16 -42 -6 -86 38 -76 76 19 79 100 131 145 94 22 -18 23 -22 11
-51 -11 -25 -11 -34 -1 -46 29 -35 55 39 30 86 -28 51 -115 63 -173 24z"/>
<path d="M10814 10049 c1 -17 -18 -37 -74 -81 -46 -36 -82 -57 -92 -54 -25 6
-22 -3 12 -44 20 -24 30 -30 30 -19 0 32 24 39 101 31 l74 -7 -54 -43 c-39
-31 -59 -41 -74 -36 -17 5 -15 -1 13 -40 36 -50 45 -56 35 -27 -9 29 139 145
173 136 24 -6 23 -5 -9 36 -31 39 -33 40 -40 20 -8 -19 -16 -21 -84 -21 -41 0
-75 4 -75 10 0 17 94 81 112 77 25 -7 22 2 -16 47 -29 34 -33 36 -32 15z"/>
<path d="M1899 9959 c-46 -56 -59 -81 -59 -112 0 -36 23 -51 70 -44 l39 5 16
-53 c8 -29 15 -58 15 -64 0 -17 14 -13 27 8 10 15 8 32 -7 85 -10 36 -15 68
-11 70 14 9 71 -45 71 -67 1 -20 2 -20 26 8 14 17 30 38 35 48 9 16 8 17 -9 8
-17 -9 -31 -1 -95 50 -44 35 -77 69 -79 81 -3 19 -7 16 -39 -23z m55 -68 c15
-17 16 -23 6 -36 -26 -32 -80 -12 -80 30 0 48 34 51 74 6z"/>
<path d="M11026 9770 c3 -14 -4 -47 -15 -75 l-19 -50 -80 0 -80 0 21 -30 c18
-24 22 -26 25 -12 3 13 14 17 53 17 48 0 50 -1 43 -22 -16 -54 -24 -68 -39
-68 -20 0 -19 -4 12 -51 l27 -40 12 50 c8 27 20 67 29 87 l15 36 64 -4 c57 -3
63 -2 56 12 -13 24 -40 45 -40 31 0 -6 -16 -11 -35 -11 -19 0 -35 2 -35 5 0
16 26 55 37 55 16 0 7 19 -31 65 -24 30 -24 30 -20 5z"/>
<path d="M1717 9718 c-40 -54 -42 -61 -19 -54 14 5 24 1 30 -11 13 -23 42
-136 37 -141 -2 -2 -29 15 -60 38 -46 34 -55 45 -49 63 4 14 3 18 -3 12 -14
-16 -63 -83 -63 -88 0 -2 12 -2 28 0 20 2 44 -10 95 -47 37 -28 71 -60 76 -71
6 -19 10 -17 34 20 15 22 27 42 27 44 0 1 -12 3 -27 2 -23 0 -29 6 -38 40 -19
66 -25 105 -16 105 5 0 32 -18 60 -40 33 -26 48 -45 45 -55 -11 -28 5 -15 36
30 31 44 31 46 8 40 -33 -8 -173 92 -172 123 1 28 -1 28 -29 -10z"/>
<path d="M4575 9720 c-557 -85 -881 -687 -645 -1197 68 -146 159 -255 285
-342 150 -104 263 -141 455 -148 114 -4 148 -2 222 16 271 64 491 252 597 508
47 115 56 167 56 323 -1 172 -13 228 -85 375 -138 282 -408 456 -725 470 -55
2 -127 0 -160 -5z m245 -176 c156 -29 265 -90 378 -209 393 -413 110 -1107
-463 -1132 -315 -15 -585 173 -682 472 -20 64 -26 102 -27 190 -1 133 12 190
71 314 38 79 59 108 127 175 107 107 207 160 356 191 88 18 143 18 240 -1z"/>
<path d="M7975 9720 c-272 -43 -505 -210 -629 -450 -74 -143 -91 -218 -90
-400 0 -149 1 -159 33 -252 100 -292 325 -499 618 -569 74 -18 109 -20 223
-16 116 4 148 9 230 35 272 89 472 297 556 577 23 78 27 109 27 225 1 149 -13
224 -62 340 -54 130 -168 273 -287 360 -67 49 -196 109 -281 130 -91 24 -252
33 -338 20z m290 -185 c190 -49 355 -183 438 -356 59 -124 72 -181 71 -314 -1
-88 -7 -126 -27 -190 -77 -236 -269 -410 -508 -461 -99 -21 -259 -14 -349 16
-201 66 -362 226 -434 429 -28 79 -30 97 -31 216 0 144 16 212 78 330 36 67
139 182 204 227 166 114 370 152 558 103z"/>
<path d="M11155 9490 c-67 -15 -115 -66 -115 -123 0 -130 174 -158 244 -38 47
81 -34 182 -129 161z m101 -56 c16 -23 16 -28 1 -60 -18 -38 -97 -94 -132 -94
-12 0 -30 9 -39 19 -27 30 -12 74 41 121 57 49 103 55 129 14z"/>
<path d="M1508 9406 c-32 -55 -34 -63 -14 -47 12 10 31 3 96 -35 45 -26 84
-52 87 -59 5 -14 -21 -70 -37 -80 -14 -9 -171 86 -180 109 -7 19 -8 19 -20 -4
-7 -14 -20 -35 -28 -48 -15 -22 -14 -23 11 -17 36 10 184 -76 189 -108 2 -17
12 -6 42 48 63 114 72 123 113 127 l37 3 -28 19 c-24 15 -33 16 -48 7 -16 -10
-32 -4 -103 36 -67 38 -85 53 -87 73 -3 22 -6 20 -30 -24z"/>
<path d="M11348 9233 c-27 -7 -22 -21 8 -25 15 -2 33 -12 40 -24 13 -19 10
-23 -71 -68 -53 -30 -93 -46 -105 -43 -25 7 -25 4 6 -49 25 -42 42 -59 31 -31
-3 8 -2 18 1 24 8 12 172 107 176 102 19 -22 25 -51 16 -69 -13 -25 1 -26 22
-2 15 16 12 24 -34 105 -28 48 -55 86 -62 86 -6 -1 -19 -3 -28 -6z"/>
<path d="M1315 9064 c-33 -36 -42 -87 -21 -119 19 -29 29 -31 45 -11 10 11 6
20 -16 40 -36 33 -23 61 28 61 l34 0 1 -50 c1 -84 3 -94 24 -115 43 -43 104
-10 102 55 -1 23 3 35 12 35 27 0 40 28 28 63 -5 17 -10 24 -11 15 -1 -26 -23
-22 -101 17 -38 19 -77 35 -85 35 -9 0 -27 -12 -40 -26z m175 -119 c0 -25 -5
-35 -20 -40 -43 -14 -78 35 -64 90 l6 24 39 -20 c34 -17 39 -24 39 -54z"/>
<path d="M11405 8940 c-77 -38 -98 -118 -46 -171 24 -24 38 -29 73 -28 l43 1
-32 9 c-36 11 -63 43 -63 76 0 24 57 96 72 91 5 -2 23 -35 40 -73 36 -84 31
-77 52 -69 27 10 49 62 42 100 -14 74 -99 105 -181 64z m139 -26 c21 -21 20
-47 -3 -68 -19 -17 -20 -16 -40 23 -12 22 -21 45 -21 51 0 16 47 12 64 -6z"/>
<path d="M1193 8818 c-28 -58 -28 -56 1 -51 20 4 27 -3 55 -63 17 -37 29 -69
26 -72 -2 -3 -30 8 -62 24 -40 20 -58 35 -57 47 1 9 -2 17 -6 17 -6 0 -15 -20
-49 -105 -2 -5 5 -2 15 7 18 16 24 15 104 -21 51 -23 89 -46 96 -59 10 -21 11
-20 27 14 22 45 21 51 -5 50 -19 -1 -29 12 -56 68 -18 38 -31 71 -28 73 9 9
125 -57 128 -74 3 -13 10 -6 26 24 27 53 28 67 3 51 -28 -17 -188 60 -193 94
-2 19 -6 16 -25 -24z"/>
<path d="M11630 8694 c0 -16 -24 -30 -129 -72 -138 -56 -150 -59 -170 -39 -11
10 -12 7 -6 -13 4 -14 16 -41 26 -60 14 -27 18 -30 19 -14 0 13 12 26 35 37
40 19 69 22 60 7 -12 -19 26 -78 60 -94 43 -21 71 -20 121 3 47 21 84 64 84
96 0 27 -36 75 -56 75 -18 0 -18 10 1 24 14 10 12 15 -15 41 -27 26 -30 27
-30 9z m30 -94 c29 -29 25 -54 -15 -88 -59 -52 -137 -54 -156 -5 -14 37 9 66
73 91 67 26 74 26 98 2z"/>
<path d="M6305 8569 c-265 -41 -474 -224 -555 -484 -42 -138 -24 -348 41 -478
181 -358 614 -487 956 -286 82 48 192 162 238 244 60 106 86 209 86 335 0 126
-16 195 -73 310 -79 162 -250 299 -431 345 -79 19 -189 26 -262 14z m185 -149
c218 -35 399 -223 432 -450 24 -159 -33 -323 -152 -441 -318 -315 -850 -121
-896 326 -26 251 161 506 410 560 76 17 123 18 206 5z"/>
<path d="M1051 8483 c-8 -21 -16 -44 -19 -51 -4 -11 -1 -12 14 -2 16 10 34 6
104 -20 47 -18 88 -36 92 -39 10 -9 -22 -91 -36 -91 -5 0 -48 14 -94 32 -56
21 -86 38 -91 51 -7 17 -10 14 -24 -22 -21 -52 -22 -68 -2 -51 12 10 29 7 87
-15 92 -35 121 -53 114 -71 -3 -8 -2 -14 2 -14 4 0 23 41 42 92 37 102 57 128
98 128 l27 1 -25 14 c-29 17 -60 19 -60 5 0 -16 -20 -12 -112 22 -53 20 -90
39 -95 51 -7 16 -10 13 -22 -20z"/>
<path d="M11743 8353 c-7 -3 -13 -13 -13 -24 0 -15 7 -19 35 -19 44 0 61 -27
39 -58 -22 -33 -44 -27 -93 23 -34 35 -51 45 -76 45 -66 0 -85 -63 -35 -110
18 -17 26 -31 20 -35 -17 -11 -11 -43 12 -59 29 -20 44 -20 28 -1 -18 21 -8
28 76 54 39 12 79 30 89 41 43 48 -23 162 -82 143z m-39 -94 c36 -29 33 -44
-15 -58 -36 -11 -43 -10 -60 5 -55 50 15 100 75 53z"/>
<path d="M963 8135 c-91 -39 -92 -164 -1 -211 62 -32 147 -14 173 37 35 66 2
144 -72 175 -40 17 -59 17 -100 -1z m127 -63 c27 -13 36 -24 38 -49 4 -40 -27
-63 -86 -63 -93 0 -152 52 -118 105 14 22 23 25 74 25 34 0 71 -7 92 -18z"/>
<path d="M11880 8073 c0 -18 -10 -25 -57 -38 -32 -9 -75 -21 -95 -27 -29 -8
-41 -8 -53 2 -19 15 -20 3 -4 -53 10 -37 11 -37 27 -18 10 11 55 30 105 44
l88 25 10 -27 c25 -64 20 -73 -61 -98 -82 -25 -130 -29 -130 -11 0 6 -3 8 -6
5 -9 -8 16 -96 29 -104 6 -3 7 -2 4 3 -12 21 13 35 103 60 89 25 95 25 107 8
20 -27 16 -3 -18 115 -34 117 -48 150 -49 114z"/>
<path d="M841 7834 c-33 -42 -28 -97 13 -141 30 -33 39 -37 93 -41 55 -4 63
-2 91 24 44 41 47 100 7 139 -28 29 -57 35 -32 8 30 -35 31 -70 2 -99 -24 -24
-32 -26 -81 -22 -66 6 -96 29 -92 72 2 25 8 32 30 34 30 4 53 26 43 42 -12 19
-53 10 -74 -16z"/>
<path d="M4338 7764 c-338 -61 -685 -276 -894 -553 -78 -104 -164 -273 -202
-396 l-27 -90 -3 -1454 c-3 -1604 -7 -1488 60 -1510 47 -15 89 -1 111 37 18
30 19 91 21 1419 2 1482 2 1454 51 1596 63 183 184 351 351 488 493 403 1169
373 1629 -72 135 -131 234 -284 288 -449 32 -98 32 -104 -10 -136 -186 -141
-336 -385 -384 -627 -7 -34 -10 -367 -9 -982 l1 -930 23 -51 c28 -61 83 -117
151 -153 44 -23 61 -26 150 -26 85 0 106 3 143 23 63 33 114 84 142 139 l25
48 3 1239 c2 973 5 1242 15 1248 25 17 168 58 253 72 192 34 436 6 577 -65
l37 -19 1 -1053 c2 -1355 3 -1365 17 -1412 30 -102 122 -190 225 -216 78 -19
194 -8 254 25 55 30 105 85 129 141 l14 35 108 -54 c495 -248 1037 -196 1489
145 230 174 404 417 481 675 l26 89 4 840 c2 554 -1 863 -8 908 -35 228 -155
457 -340 651 -216 225 -467 366 -760 426 -125 25 -381 28 -515 4 -422 -73
-828 -381 -1018 -771 -24 -49 -52 -119 -62 -154 l-19 -66 -66 23 c-107 37
-229 54 -396 54 -184 0 -283 -12 -390 -49 l-80 -27 -18 63 c-24 81 -110 252
-178 350 -197 284 -565 516 -921 579 -104 18 -375 17 -479 -2z m4087 -199
c339 -59 659 -279 826 -570 79 -137 121 -265 139 -425 13 -109 13 -1364 0
-1490 -25 -258 -111 -441 -295 -626 -156 -157 -305 -251 -505 -318 -339 -113
-672 -76 -984 109 l-116 70 0 780 c0 815 -3 882 -45 1025 -23 75 -95 218 -156
306 -51 74 -209 234 -230 234 -35 0 33 198 115 338 124 212 353 404 592 496
233 90 427 111 659 71z m-2667 -2617 l-3 -826 -24 -26 c-20 -21 -34 -26 -73
-26 -52 0 -79 10 -115 43 l-23 20 0 920 0 919 30 89 c45 135 113 261 179 332
l26 28 3 -323 c1 -178 1 -695 0 -1150z m1363 1370 c55 -81 114 -202 141 -289
22 -73 22 -84 26 -699 1 -344 2 -672 0 -730 l-3 -105 -52 74 c-64 90 -134 231
-164 331 -23 75 -23 79 -27 794 l-3 720 22 -20 c12 -10 39 -45 60 -76z m-41
-1876 c14 -20 67 -80 118 -133 85 -89 92 -99 92 -137 0 -29 -7 -49 -26 -71
-23 -28 -31 -31 -86 -31 -113 0 -123 18 -133 243 -4 94 -4 167 1 167 5 0 20
-17 34 -38z"/>
<path d="M11970 7726 c0 -16 -31 -27 -133 -48 -47 -10 -62 -10 -79 1 -18 11
-20 11 -15 -2 3 -9 9 -32 13 -51 7 -41 11 -43 29 -19 12 17 18 15 84 -16 38
-19 68 -38 66 -41 -3 -4 -32 -13 -65 -19 -47 -10 -65 -10 -76 0 -11 9 -14 8
-13 -7 1 -27 27 -102 28 -82 1 23 21 32 114 54 63 14 82 16 98 6 22 -14 22
-14 8 45 -9 35 -14 42 -21 29 -5 -9 -16 -16 -24 -16 -22 0 -135 60 -130 69 3
4 30 13 61 20 51 12 58 11 77 -6 19 -16 21 -16 15 -1 -3 9 -9 33 -13 52 -6 37
-24 60 -24 32z"/>
<path d="M795 7578 c-75 -66 -11 -187 102 -190 21 -1 48 2 61 6 16 5 22 3 22
-8 0 -22 -19 -30 -170 -70 -199 -53 -210 -56 -210 -64 0 -4 62 -43 137 -87
153 -90 193 -119 194 -143 2 -28 17 30 18 67 1 33 0 34 -14 15 -14 -19 -15
-19 -52 3 l-38 21 2 67 c1 37 5 71 10 76 5 5 30 12 56 15 39 6 47 4 47 -10 0
-9 4 -16 9 -16 10 0 26 128 17 137 -3 3 4 17 14 31 30 37 26 88 -9 123 -35 34
-65 40 -33 6 61 -65 -10 -143 -106 -118 -76 21 -98 87 -35 103 37 10 46 20 37
42 -9 22 -28 20 -59 -6z m29 -370 c-4 -29 -8 -54 -9 -56 -1 -1 -30 14 -64 34
-34 20 -60 38 -58 41 8 7 92 31 115 32 22 1 22 -1 16 -51z"/>
<path d="M12045 7364 c-8 -12 -40 -21 -105 -31 -88 -13 -96 -12 -107 4 -11 14
-13 11 -12 -23 0 -40 17 -96 18 -63 2 33 33 29 102 -13 60 -38 66 -44 46 -50
-41 -11 -135 -9 -140 5 -3 6 -5 -6 -6 -28 0 -40 17 -98 18 -64 1 22 13 26 118
40 80 10 88 10 100 -7 12 -16 13 -13 12 22 0 21 -4 48 -8 58 -7 18 -8 18 -14
3 -3 -9 -13 -17 -22 -17 -17 0 -125 69 -125 80 0 4 28 11 62 14 53 6 64 5 75
-10 12 -16 13 -14 12 17 -1 19 -4 44 -7 57 -6 20 -8 20 -17 6z"/>
<path d="M12048 6980 c-27 -17 -52 -30 -57 -30 -5 0 -34 12 -65 26 -32 14 -60
24 -62 21 -3 -3 25 -28 61 -56 77 -58 75 -58 150 18 55 57 44 66 -27 21z"/>
<path d="M735 6940 c33 -33 65 -58 72 -55 22 8 123 87 123 96 0 5 -27 -3 -61
-18 l-61 -26 -58 31 c-32 18 -61 32 -66 32 -5 0 18 -27 51 -60z"/>
<path d="M12058 6860 c-27 -17 -52 -30 -58 -30 -5 0 -35 11 -66 25 -32 14 -59
23 -62 20 -6 -6 -11 -2 67 -58 l64 -46 56 51 c83 75 82 90 -1 38z"/>
<path d="M725 6820 c33 -33 62 -60 65 -60 12 0 132 92 126 97 -3 3 -30 -5 -62
-18 l-56 -24 -58 33 c-32 17 -62 32 -66 32 -5 0 18 -27 51 -60z"/>
<path d="M1610 3439 c-133 -84 -152 -101 -134 -119 8 -8 46 11 135 69 l124 80
43 -66 c23 -37 41 -70 40 -74 -2 -5 -54 -41 -117 -81 -116 -75 -135 -93 -107
-104 14 -5 232 123 273 160 9 8 -3 35 -51 110 -34 55 -67 101 -72 103 -5 1
-65 -34 -134 -78z"/>
<path d="M5964 3466 c-172 -40 -283 -153 -330 -336 -24 -93 -15 -301 16 -388
47 -134 144 -223 280 -258 79 -20 267 -15 348 10 l52 17 0 63 c0 34 -2 65 -5
68 -3 3 -42 -4 -88 -14 -107 -26 -233 -22 -293 10 -103 53 -154 164 -154 333
0 125 26 210 83 275 63 71 105 89 212 88 86 0 101 -4 206 -48 12 -5 22 8 44
59 16 38 24 70 19 75 -5 4 -40 18 -79 29 -90 28 -230 35 -311 17z"/>
<path d="M4905 3233 c-48 -131 -128 -346 -178 -478 -49 -132 -91 -248 -94
-257 -5 -16 3 -18 80 -18 l85 0 47 135 48 135 187 0 187 0 49 -132 49 -133 83
-3 c52 -2 82 1 82 8 0 5 -38 113 -84 238 -134 362 -244 656 -262 701 l-16 41
-87 0 -87 0 -89 -237z m315 -338 c0 -3 -61 -5 -135 -5 -101 0 -135 3 -135 13
0 6 28 95 61 197 34 102 64 192 66 200 3 11 143 -385 143 -405z"/>
<path d="M6535 3448 c-3 -7 -4 -227 -3 -488 l3 -475 80 0 80 0 5 241 5 241
198 -244 198 -243 89 0 c50 0 90 4 90 8 0 4 -90 118 -200 252 -110 133 -200
246 -200 249 0 3 86 108 190 233 105 125 190 229 190 232 0 3 -38 6 -85 6
l-84 0 -193 -230 -193 -230 -3 230 -2 230 -80 0 c-55 0 -82 -4 -85 -12z"/>
<path d="M7420 2970 l0 -490 80 0 80 0 2 423 3 422 210 0 210 0 5 -420 5 -420
78 -3 77 -3 0 491 0 490 -375 0 -375 0 0 -490z"/>
<path d="M11104 3442 c-65 -53 -56 -138 21 -190 18 -13 48 -25 66 -28 59 -9
127 49 132 111 3 44 -17 39 -41 -10 -25 -52 -58 -70 -97 -55 -29 11 -27 18 26
97 35 50 35 57 7 77 -30 21 -88 20 -114 -2z m81 -32 c8 -13 -46 -100 -61 -100
-27 0 -32 70 -8 94 17 18 60 21 69 6z"/>
<path d="M10982 3258 c-19 -19 -15 -38 28 -138 22 -51 38 -95 36 -97 -2 -3
-36 19 -76 47 -65 47 -100 57 -100 31 0 -5 46 -41 102 -80 99 -69 102 -70 116
-50 13 18 10 31 -32 130 -25 60 -40 107 -33 103 7 -4 43 -29 81 -57 60 -43 70
-47 83 -34 13 13 2 23 -87 86 -55 39 -102 71 -103 71 -2 0 -8 -5 -15 -12z"/>
<path d="M1703 3107 c-78 -56 -142 -107 -143 -114 -1 -27 24 -23 73 11 l52 37
8 -33 c25 -98 120 -113 203 -33 38 36 44 47 44 82 0 44 -27 87 -60 98 -12 4
-19 14 -17 27 1 11 -2 22 -8 24 -5 1 -74 -43 -152 -99z m179 6 c10 -9 18 -30
18 -49 0 -25 -8 -39 -36 -62 -57 -47 -110 -47 -134 -2 -18 33 -4 67 42 100 46
34 83 38 110 13z"/>
<path d="M10814 3028 c-4 -7 8 -24 31 -43 26 -23 35 -37 30 -46 -16 -26 -70
-89 -77 -89 -3 0 -20 12 -37 26 -29 24 -61 27 -61 5 0 -5 43 -45 96 -87 75
-61 98 -74 105 -63 13 21 12 23 -31 58 l-40 32 37 49 c21 27 43 49 48 50 6 0
27 -14 48 -31 36 -30 57 -31 57 -4 0 14 -171 155 -188 155 -6 0 -14 -5 -18
-12z"/>
<path d="M1945 2948 c-42 -23 -85 -73 -91 -105 -12 -66 41 -133 106 -133 81 0
158 77 147 147 -12 76 -101 125 -162 91z m102 -50 c40 -37 26 -90 -34 -130
-38 -24 -78 -23 -103 4 -32 35 -26 70 20 112 47 42 83 46 117 14z"/>
<path d="M10623 2785 c-34 -15 -63 -59 -63 -98 0 -29 35 -83 73 -111 19 -14
43 -21 73 -21 41 0 50 5 85 43 26 28 39 50 37 64 -5 34 -23 31 -41 -6 -22 -47
-58 -70 -96 -61 -17 4 -33 10 -36 15 -3 5 19 37 49 72 60 69 60 79 -1 105 -39
16 -40 16 -80 -2z m62 -39 c19 -13 18 -15 -15 -54 -38 -44 -55 -51 -64 -26
-11 29 -6 54 14 74 24 24 39 25 65 6z"/>
<path d="M2298 2739 l-36 -30 -41 22 c-53 27 -98 20 -145 -24 -43 -41 -54 -89
-32 -140 l15 -37 -40 -32 c-35 -28 -38 -34 -25 -46 13 -13 19 -11 54 16 l39
31 39 -19 c21 -11 47 -20 57 -20 34 0 89 33 108 64 21 34 25 96 8 128 -9 17
-6 26 26 58 28 29 33 39 23 48 -10 8 -22 3 -50 -19z m-90 -43 c24 -13 23 -13
-44 -74 -38 -34 -72 -62 -76 -62 -15 0 -20 51 -8 80 13 30 64 70 90 69 8 0 26
-6 38 -13z m62 -72 c23 -58 -57 -140 -116 -119 -15 6 -29 15 -30 20 -2 8 121
123 134 125 1 0 7 -12 12 -26z"/>
<path d="M10469 2624 c-10 -12 -6 -21 24 -52 l37 -38 -48 -47 -48 -47 -34 35
c-31 32 -35 34 -50 19 -14 -14 -7 -24 74 -100 50 -46 94 -84 98 -84 5 0 11 7
15 16 4 11 -6 27 -32 48 -43 37 -42 47 19 105 l36 35 39 -38 c37 -36 61 -41
61 -13 0 7 -40 49 -89 94 -77 71 -91 80 -102 67z"/>
<path d="M2335 2491 c-63 -38 -93 -99 -74 -149 15 -40 69 -92 96 -92 32 0 29
7 -17 50 -42 39 -51 72 -29 112 10 19 14 17 73 -41 l62 -62 21 23 c36 38 45
74 29 112 -27 64 -99 86 -161 47z m120 -44 c19 -27 19 -38 1 -63 -14 -18 -16
-18 -55 21 -47 45 -49 53 -19 64 30 11 55 3 73 -22z"/>
<path d="M10268 2413 c-15 -17 -15 -25 2 -113 11 -52 19 -103 20 -112 0 -12
-25 8 -68 53 -60 64 -69 70 -81 55 -12 -14 -3 -27 75 -106 84 -86 89 -90 105
-73 17 17 17 23 -2 117 -11 54 -19 106 -17 114 2 10 23 -7 62 -51 32 -37 64
-67 71 -67 36 0 17 34 -64 114 -83 82 -88 86 -103 69z"/>
<path d="M2555 2333 c-31 -8 -83 -51 -100 -83 -26 -51 -20 -95 20 -135 20 -19
42 -35 50 -35 24 0 29 22 9 37 -45 32 -54 44 -54 72 0 57 77 118 126 100 12
-4 30 -20 41 -35 12 -16 25 -24 31 -20 20 12 14 31 -20 63 -34 32 -68 44 -103
36z"/>
<path d="M10022 2192 l-44 -37 36 -60 c39 -64 61 -128 52 -152 -4 -8 10 -34
31 -59 33 -41 38 -43 52 -30 13 14 12 19 -14 46 -18 18 -25 34 -19 39 5 5 34
30 63 55 l55 46 31 -30 c28 -27 33 -29 45 -15 10 12 7 21 -21 54 -25 29 -40
39 -55 36 -17 -4 -37 12 -89 70 -37 41 -70 75 -73 75 -4 0 -27 -17 -50 -38z
m102 -74 c31 -35 56 -66 56 -69 0 -4 -17 -22 -37 -39 l-37 -33 -18 52 c-9 29
-27 68 -39 87 -17 28 -19 37 -9 49 7 8 16 15 20 15 5 0 33 -28 64 -62z"/>
<path d="M2665 2159 c-42 -37 -65 -77 -65 -114 0 -55 84 -132 109 -101 9 11 5
18 -23 35 -58 36 -61 74 -10 131 45 50 83 54 122 12 27 -29 52 -32 52 -7 0 7
-16 27 -35 44 -49 43 -101 43 -150 0z"/>
<path d="M2817 1988 c-71 -89 -74 -94 -57 -111 16 -18 21 -17 120 18 57 19
107 34 111 33 4 -2 -17 -34 -48 -71 -49 -61 -62 -97 -34 -97 10 0 151 176 151
189 0 5 -7 14 -15 21 -12 10 -35 5 -122 -24 -58 -20 -108 -35 -109 -33 -2 2
22 34 52 72 30 37 53 73 51 79 -9 27 -31 10 -100 -76z"/>
<path d="M9854 2043 c-38 -7 -79 -60 -79 -102 0 -51 45 -118 92 -137 48 -20
86 -10 135 37 35 33 39 41 28 54 -12 15 -16 13 -36 -13 -35 -44 -75 -57 -113
-38 -17 9 -31 20 -31 24 0 4 30 29 65 56 36 27 65 52 65 56 0 10 -59 60 -70
60 -5 0 -14 2 -22 4 -7 2 -23 1 -34 -1z m52 -48 c18 -15 18 -16 -21 -50 -22
-19 -47 -34 -55 -32 -25 4 -24 46 1 73 26 28 47 30 75 9z"/>
<path d="M3070 1854 c-68 -57 -79 -131 -29 -188 54 -62 123 -56 182 14 52 61
44 144 -17 181 -45 27 -98 25 -136 -7z m110 -19 c36 -18 47 -55 30 -95 -15
-36 -64 -80 -89 -80 -31 0 -71 39 -71 69 0 34 37 91 70 108 31 16 25 16 60 -2z"/>
<path d="M9317 1781 c-52 -54 -57 -64 -57 -103 0 -93 94 -218 164 -218 41 0
98 37 110 71 14 41 -2 95 -38 134 -27 28 -41 35 -72 35 -42 0 -74 -21 -94 -59
-15 -30 -30 -12 -30 39 0 28 9 44 51 86 41 42 48 53 36 62 -11 10 -25 0 -70
-47z m163 -166 c26 -43 26 -80 -2 -99 -35 -25 -69 -19 -105 16 -36 35 -39 50
-19 87 32 58 89 56 126 -4z"/>
<path d="M9520 1804 c-19 -14 -42 -29 -50 -34 -12 -7 -13 -11 -2 -21 10 -11
18 -10 41 4 16 9 32 17 35 17 3 0 26 -30 52 -67 79 -113 68 -108 133 -61 31
23 61 49 68 57 19 25 15 76 -7 96 -29 26 -73 21 -127 -16 l-47 -32 -15 23
c-40 60 -43 61 -81 34z m238 -36 c21 -21 13 -46 -25 -77 -21 -17 -42 -31 -48
-31 -6 0 -19 13 -28 30 l-18 30 47 30 c54 34 56 34 72 18z"/>
<path d="M3275 1653 c-51 -81 -64 -108 -53 -114 22 -14 26 -11 54 36 26 46 26
46 52 29 14 -9 40 -26 59 -37 37 -21 39 -12 -13 -91 -14 -23 -14 -25 3 -34 16
-9 27 4 86 96 59 93 65 107 50 116 -13 7 -21 4 -32 -13 -49 -67 -40 -65 -98
-29 -29 18 -53 37 -53 43 0 6 11 27 25 47 24 36 24 38 6 47 -17 9 -27 -2 -86
-96z"/>
<path d="M9037 1609 c-81 -43 -100 -134 -46 -227 36 -64 78 -92 137 -92 113 0
186 103 147 206 -45 118 -142 164 -238 113z m141 -44 c37 -31 76 -118 67 -152
-3 -14 -19 -38 -35 -54 -23 -23 -37 -29 -73 -29 -50 0 -85 27 -118 92 -29 57
-25 94 15 134 44 44 99 47 144 9z"/>
<path d="M3580 1577 c0 -8 17 -19 39 -25 48 -15 65 -34 57 -67 -8 -30 -15 -31
-66 -5 -80 41 -144 14 -138 -58 4 -46 56 -87 102 -78 22 5 27 3 23 -8 -3 -8 0
-20 8 -26 10 -9 23 7 64 78 57 99 62 128 29 160 -41 37 -118 56 -118 29z m54
-147 c11 -11 -18 -47 -45 -55 -25 -8 -79 22 -79 43 0 22 11 38 30 44 15 6 78
-16 94 -32z"/>
<path d="M3782 1395 c-49 -70 -63 -82 -117 -100 -20 -6 -20 -7 -1 -21 36 -26
89 8 149 96 16 25 32 47 33 49 4 4 64 -19 64 -25 0 -2 -21 -47 -47 -99 -40
-81 -46 -97 -33 -105 8 -5 18 -6 21 -2 13 14 109 199 109 210 0 9 -107 72
-123 72 -1 0 -26 -34 -55 -75z"/>
<path d="M3977 1268 c-26 -57 -47 -108 -47 -115 0 -16 108 -64 147 -66 35 -1
61 16 74 50 14 37 -9 70 -68 99 -57 28 -62 39 -38 85 16 31 13 49 -9 49 -6 0
-33 -46 -59 -102z m83 -61 c34 -17 46 -28 48 -48 4 -37 -21 -44 -80 -22 -51
18 -55 26 -36 68 13 30 11 30 68 2z"/>
<path d="M8691 1334 c-39 -33 -48 -77 -26 -132 35 -86 104 -113 185 -72 45 23
52 32 44 55 -6 14 -8 14 -23 1 -28 -25 -84 -44 -106 -36 -11 4 -28 17 -38 28
-18 20 -17 20 37 45 30 14 64 28 75 32 30 9 26 41 -8 76 -39 39 -96 40 -140 3z
m104 -24 c10 -11 15 -23 12 -26 -13 -13 -106 -52 -111 -46 -15 14 -4 52 20 71
33 26 56 27 79 1z"/>
<path d="M4261 1252 c-13 -24 -81 -202 -81 -212 0 -4 7 -11 16 -14 11 -4 21 7
36 42 11 26 22 49 24 51 4 4 124 -39 124 -45 0 -2 -9 -26 -20 -53 -17 -45 -18
-50 -3 -55 9 -4 20 -3 24 1 17 17 86 218 79 227 -14 15 -37 -1 -45 -31 -12
-49 -21 -53 -78 -31 -29 11 -55 23 -60 27 -4 4 -1 24 8 44 8 20 15 41 15 46 0
17 -30 20 -39 3z"/>
<path d="M8483 1253 c-12 -2 -36 -18 -54 -34 -29 -27 -31 -33 -27 -85 5 -64
29 -101 79 -126 28 -14 42 -16 71 -7 152 42 86 285 -69 252z m77 -55 c33 -36
47 -95 29 -126 -18 -33 -63 -51 -87 -36 -30 19 -62 76 -62 110 0 67 76 99 120
52z"/>
<path d="M8307 1176 c-8 -8 -24 -40 -37 -70 -12 -31 -26 -56 -30 -56 -4 0 -13
20 -20 45 -9 33 -18 45 -31 45 -26 0 -24 -9 17 -132 29 -87 39 -108 55 -108
23 0 23 4 3 64 -9 26 -15 49 -13 51 2 2 34 -14 71 -36 58 -34 98 -43 98 -20 0
3 -26 21 -57 39 -92 51 -88 43 -60 98 32 63 41 94 28 94 -5 0 -16 -6 -24 -14z"/>
<path d="M4542 1130 c-69 -42 -91 -153 -40 -207 59 -62 149 -48 188 31 41 85
17 160 -59 185 -45 15 -51 14 -89 -9z m91 -31 c12 -7 25 -17 29 -23 23 -34 -8
-130 -48 -148 -31 -14 -71 -3 -89 26 -21 32 -11 87 22 127 26 31 51 36 86 18z"/>
<path d="M8035 1092 c-48 -29 -59 -49 -58 -102 1 -62 28 -110 75 -133 32 -16
42 -16 78 -6 47 14 68 35 53 50 -8 8 -21 6 -43 -6 -42 -22 -76 -13 -100 28
-24 39 -26 109 -4 127 8 8 32 16 52 19 24 4 38 12 40 24 5 24 -53 23 -93 -1z"/>
<path d="M5168 1063 c-3 -4 -20 -77 -39 -161 -29 -131 -31 -154 -19 -162 8 -5
18 -6 21 -2 4 4 21 67 37 141 17 73 33 135 36 138 9 10 156 -31 156 -43 0 -6
-13 -68 -30 -137 -16 -69 -30 -131 -30 -136 0 -22 40 -11 45 12 3 12 19 80 35
150 17 71 30 134 30 140 0 7 -44 21 -105 35 -58 12 -111 25 -119 28 -8 3 -16
2 -18 -3z"/>
<path d="M4783 1036 c-29 -24 -53 -82 -53 -125 0 -62 67 -115 137 -109 55 5
52 24 -6 32 -53 7 -91 39 -91 78 0 28 18 30 95 9 38 -11 72 -18 76 -15 12 7
17 56 8 89 -18 66 -110 88 -166 41z m109 -23 c10 -9 18 -28 18 -43 l0 -28 -52
15 c-68 20 -75 26 -49 52 25 25 58 27 83 4z"/>
<path d="M7783 1020 c-39 -16 -65 -69 -59 -119 12 -91 68 -139 145 -126 48 8
92 40 85 60 -5 12 -12 11 -42 -5 -47 -25 -87 -25 -112 0 -33 33 -24 44 48 64
92 26 96 30 72 77 -11 21 -29 43 -39 49 -24 12 -68 12 -98 0z m75 -36 c36 -25
27 -42 -34 -60 -30 -9 -58 -13 -62 -10 -12 12 14 61 38 73 32 16 31 16 58 -3z"/>
<path d="M7614 954 c19 -75 19 -80 -9 -103 -31 -23 -77 -28 -93 -8 -6 6 -13
30 -17 52 -10 51 -12 55 -30 48 -26 -9 -11 -96 23 -135 20 -24 69 -23 114 2
41 22 43 21 53 -33 8 -42 15 -49 35 -37 12 7 11 20 -4 87 -34 150 -35 153 -57
153 -18 0 -20 -4 -15 -26z"/>
<path d="M7326 908 c-7 -13 -29 -60 -47 -105 -18 -46 -36 -83 -40 -83 -3 0
-12 35 -19 77 -15 93 -18 103 -36 103 -18 0 -17 -32 4 -150 14 -75 22 -96 36
-98 27 -6 35 7 82 120 23 57 45 96 47 88 3 -8 11 -50 18 -93 11 -72 28 -102
46 -83 6 6 -7 91 -29 199 -11 53 -37 64 -62 25z"/>
<path d="M5489 895 c-15 -8 -34 -32 -43 -55 -41 -102 -3 -178 92 -188 48 -4
52 -3 52 17 0 18 -6 21 -45 21 -36 0 -47 4 -61 25 -20 31 -12 103 15 136 17
21 26 23 100 16 34 -3 38 21 6 33 -37 14 -85 12 -116 -5z"/>
<path d="M5661 793 c-7 -54 -14 -110 -17 -125 -5 -25 -3 -28 23 -28 23 0 40
15 102 91 40 50 74 89 76 87 2 -2 0 -23 -5 -48 -4 -25 -11 -69 -14 -97 -6 -49
-5 -53 14 -53 11 0 20 3 20 8 0 4 7 57 15 117 8 61 15 113 15 118 0 4 -12 7
-27 7 -23 -1 -41 -17 -93 -81 -36 -45 -69 -83 -74 -86 -8 -6 -6 27 10 145 6
37 4 42 -14 42 -17 0 -21 -11 -31 -97z"/>
<path d="M7030 881 c-37 -5 -45 -10 -43 -26 0 -11 6 -66 13 -122 11 -93 14
-103 33 -103 18 0 19 4 13 55 -3 30 -9 79 -12 109 l-6 53 56 7 c39 5 56 12 56
22 0 15 -26 16 -110 5z"/>
<path d="M5940 858 c0 -6 14 -33 30 -60 17 -26 30 -53 30 -59 0 -6 -21 -35
-46 -65 -40 -47 -44 -55 -28 -61 13 -5 28 6 61 42 23 27 44 47 46 44 2 -2 16
-25 31 -51 18 -32 34 -48 46 -48 11 0 20 2 20 4 0 3 -16 31 -35 63 -19 32 -35
62 -35 66 0 5 18 29 40 54 22 25 40 50 40 54 0 23 -39 5 -71 -33 l-36 -42 -27
46 c-24 42 -66 71 -66 46z"/>
<path d="M6754 842 c-31 -25 -44 -55 -44 -104 0 -96 68 -154 151 -129 27 8 46
22 59 44 35 57 19 156 -31 191 -31 21 -108 21 -135 -2z m106 -22 c11 -6 24
-29 30 -52 20 -72 -8 -128 -65 -128 -43 0 -67 29 -73 89 -4 43 -1 53 21 75 28
27 56 33 87 16z"/>
<path d="M6223 830 c-62 -38 -68 -158 -11 -212 33 -30 86 -37 131 -17 68 31
82 156 23 215 -40 40 -92 46 -143 14z m120 -42 c19 -23 23 -98 6 -129 -24 -46
-110 -43 -125 4 -10 33 -6 108 8 124 30 36 80 37 111 1z"/>
<path d="M6495 793 c-12 -116 -18 -137 -41 -160 -28 -28 -31 -43 -8 -43 48 0
84 73 84 171 0 46 0 47 35 51 20 2 38 2 40 -1 3 -2 5 -51 5 -108 0 -96 1 -103
20 -103 19 0 20 7 20 125 l0 125 -74 0 -75 0 -6 -57z"/>
</g>
</svg>
